<mxfile host="65bd71144e" pages="3">
    <diagram name="Pagina-1" id="62EFtFIlTdiLFEF6OG7A">
        <mxGraphModel dx="1595" dy="611" grid="1" gridSize="10" guides="1" tooltips="1" connect="1" arrows="1" fold="1" page="1" pageScale="1" pageWidth="827" pageHeight="1169" background="light-dark(#FFFDF7,#190033)" math="0" shadow="1">
            <root>
                <mxCell id="0"/>
                <mxCell id="1" parent="0"/>
                <mxCell id="St-9uAu0BUOOX0do4pgm-1" value="User" style="swimlane;fontStyle=0;childLayout=stackLayout;horizontal=1;startSize=30;horizontalStack=0;resizeParent=1;resizeParentMax=0;resizeLast=0;collapsible=1;marginBottom=0;whiteSpace=wrap;html=1;rounded=1;" parent="1" vertex="1">
                    <mxGeometry x="180" y="210" width="140" height="216" as="geometry"/>
                </mxCell>
                <mxCell id="St-9uAu0BUOOX0do4pgm-3" value="-nome utente" style="text;strokeColor=none;fillColor=none;align=left;verticalAlign=middle;spacingLeft=4;spacingRight=4;overflow=hidden;points=[[0,0.5],[1,0.5]];portConstraint=eastwest;rotatable=0;whiteSpace=wrap;html=1;rounded=1;" parent="St-9uAu0BUOOX0do4pgm-1" vertex="1">
                    <mxGeometry y="30" width="140" height="30" as="geometry"/>
                </mxCell>
                <mxCell id="N86cOKwH3iOJ5V4Ton-A-2" value="-foto profilo" style="text;strokeColor=none;fillColor=none;align=left;verticalAlign=top;spacingLeft=4;spacingRight=4;overflow=hidden;rotatable=0;points=[[0,0.5],[1,0.5]];portConstraint=eastwest;whiteSpace=wrap;html=1;rounded=1;" parent="St-9uAu0BUOOX0do4pgm-1" vertex="1">
                    <mxGeometry y="60" width="140" height="26" as="geometry"/>
                </mxCell>
                <mxCell id="N86cOKwH3iOJ5V4Ton-A-3" value="-Email" style="text;strokeColor=none;fillColor=none;align=left;verticalAlign=top;spacingLeft=4;spacingRight=4;overflow=hidden;rotatable=0;points=[[0,0.5],[1,0.5]];portConstraint=eastwest;whiteSpace=wrap;html=1;rounded=1;" parent="St-9uAu0BUOOX0do4pgm-1" vertex="1">
                    <mxGeometry y="86" width="140" height="26" as="geometry"/>
                </mxCell>
                <mxCell id="N86cOKwH3iOJ5V4Ton-A-4" value="-password" style="text;strokeColor=none;fillColor=none;align=left;verticalAlign=top;spacingLeft=4;spacingRight=4;overflow=hidden;rotatable=0;points=[[0,0.5],[1,0.5]];portConstraint=eastwest;whiteSpace=wrap;html=1;rounded=1;" parent="St-9uAu0BUOOX0do4pgm-1" vertex="1">
                    <mxGeometry y="112" width="140" height="26" as="geometry"/>
                </mxCell>
                <mxCell id="N86cOKwH3iOJ5V4Ton-A-15" value="-verificato " style="text;strokeColor=none;fillColor=none;align=left;verticalAlign=top;spacingLeft=4;spacingRight=4;overflow=hidden;rotatable=0;points=[[0,0.5],[1,0.5]];portConstraint=eastwest;whiteSpace=wrap;html=1;rounded=1;" parent="St-9uAu0BUOOX0do4pgm-1" vertex="1">
                    <mxGeometry y="138" width="140" height="26" as="geometry"/>
                </mxCell>
                <mxCell id="N86cOKwH3iOJ5V4Ton-A-14" value="-valutazione" style="text;strokeColor=none;fillColor=none;align=left;verticalAlign=top;spacingLeft=4;spacingRight=4;overflow=hidden;rotatable=0;points=[[0,0.5],[1,0.5]];portConstraint=eastwest;whiteSpace=wrap;html=1;rounded=1;" parent="St-9uAu0BUOOX0do4pgm-1" vertex="1">
                    <mxGeometry y="164" width="140" height="26" as="geometry"/>
                </mxCell>
                <mxCell id="g7s_SQnUVm_qu5aLHeUv-12" value="-telefono" style="text;strokeColor=none;fillColor=none;align=left;verticalAlign=top;spacingLeft=4;spacingRight=4;overflow=hidden;rotatable=0;points=[[0,0.5],[1,0.5]];portConstraint=eastwest;whiteSpace=wrap;html=1;rounded=1;" parent="St-9uAu0BUOOX0do4pgm-1" vertex="1">
                    <mxGeometry y="190" width="140" height="26" as="geometry"/>
                </mxCell>
                <mxCell id="St-9uAu0BUOOX0do4pgm-5" value="Admin" style="swimlane;fontStyle=0;childLayout=stackLayout;horizontal=1;startSize=30;horizontalStack=0;resizeParent=1;resizeParentMax=0;resizeLast=0;collapsible=1;marginBottom=0;whiteSpace=wrap;html=1;rounded=1;" parent="1" vertex="1">
                    <mxGeometry x="340" y="600" width="140" height="86" as="geometry"/>
                </mxCell>
                <mxCell id="g7s_SQnUVm_qu5aLHeUv-5" value="-Password" style="text;strokeColor=none;fillColor=none;align=left;verticalAlign=top;spacingLeft=4;spacingRight=4;overflow=hidden;rotatable=0;points=[[0,0.5],[1,0.5]];portConstraint=eastwest;whiteSpace=wrap;html=1;rounded=1;" parent="St-9uAu0BUOOX0do4pgm-5" vertex="1">
                    <mxGeometry y="30" width="140" height="26" as="geometry"/>
                </mxCell>
                <mxCell id="St-9uAu0BUOOX0do4pgm-8" value="-Email" style="text;strokeColor=none;fillColor=none;align=left;verticalAlign=middle;spacingLeft=4;spacingRight=4;overflow=hidden;points=[[0,0.5],[1,0.5]];portConstraint=eastwest;rotatable=0;whiteSpace=wrap;html=1;rounded=1;" parent="St-9uAu0BUOOX0do4pgm-5" vertex="1">
                    <mxGeometry y="56" width="140" height="30" as="geometry"/>
                </mxCell>
                <mxCell id="St-9uAu0BUOOX0do4pgm-13" value="Post" style="swimlane;fontStyle=0;childLayout=stackLayout;horizontal=1;startSize=30;horizontalStack=0;resizeParent=1;resizeParentMax=0;resizeLast=0;collapsible=1;marginBottom=0;whiteSpace=wrap;html=1;rounded=1;" parent="1" vertex="1">
                    <mxGeometry x="770" y="220" width="140" height="210" as="geometry"/>
                </mxCell>
                <mxCell id="g7s_SQnUVm_qu5aLHeUv-13" value="-titolo" style="text;strokeColor=none;fillColor=none;align=left;verticalAlign=top;spacingLeft=4;spacingRight=4;overflow=hidden;rotatable=0;points=[[0,0.5],[1,0.5]];portConstraint=eastwest;whiteSpace=wrap;html=1;rounded=1;" parent="St-9uAu0BUOOX0do4pgm-13" vertex="1">
                    <mxGeometry y="30" width="140" height="26" as="geometry"/>
                </mxCell>
                <mxCell id="g7s_SQnUVm_qu5aLHeUv-2" value="-descrizione" style="text;strokeColor=none;fillColor=none;align=left;verticalAlign=top;spacingLeft=4;spacingRight=4;overflow=hidden;rotatable=0;points=[[0,0.5],[1,0.5]];portConstraint=eastwest;whiteSpace=wrap;html=1;rounded=1;" parent="St-9uAu0BUOOX0do4pgm-13" vertex="1">
                    <mxGeometry y="56" width="140" height="26" as="geometry"/>
                </mxCell>
                <mxCell id="St-9uAu0BUOOX0do4pgm-15" value="-Animali_Accettati" style="text;strokeColor=none;fillColor=none;align=left;verticalAlign=middle;spacingLeft=4;spacingRight=4;overflow=hidden;points=[[0,0.5],[1,0.5]];portConstraint=eastwest;rotatable=0;whiteSpace=wrap;html=1;rounded=1;" parent="St-9uAu0BUOOX0do4pgm-13" vertex="1">
                    <mxGeometry y="82" width="140" height="30" as="geometry"/>
                </mxCell>
                <mxCell id="LK_rWgTIg-7SpxV3aSgW-1" value="-intervallo date (inizio e fine)" style="text;strokeColor=none;fillColor=none;align=left;verticalAlign=top;spacingLeft=4;spacingRight=4;overflow=hidden;rotatable=0;points=[[0,0.5],[1,0.5]];portConstraint=eastwest;whiteSpace=wrap;html=1;rounded=1;" parent="St-9uAu0BUOOX0do4pgm-13" vertex="1">
                    <mxGeometry y="112" width="140" height="46" as="geometry"/>
                </mxCell>
                <mxCell id="g7s_SQnUVm_qu5aLHeUv-11" value="-prezzo" style="text;strokeColor=none;fillColor=none;align=left;verticalAlign=top;spacingLeft=4;spacingRight=4;overflow=hidden;rotatable=0;points=[[0,0.5],[1,0.5]];portConstraint=eastwest;whiteSpace=wrap;html=1;rounded=1;" parent="St-9uAu0BUOOX0do4pgm-13" vertex="1">
                    <mxGeometry y="158" width="140" height="26" as="geometry"/>
                </mxCell>
                <mxCell id="g7s_SQnUVm_qu5aLHeUv-15" value="-informazioni aggiuntive" style="text;strokeColor=none;fillColor=none;align=left;verticalAlign=top;spacingLeft=4;spacingRight=4;overflow=hidden;rotatable=0;points=[[0,0.5],[1,0.5]];portConstraint=eastwest;whiteSpace=wrap;html=1;rounded=1;" parent="St-9uAu0BUOOX0do4pgm-13" vertex="1">
                    <mxGeometry y="184" width="140" height="26" as="geometry"/>
                </mxCell>
                <mxCell id="St-9uAu0BUOOX0do4pgm-17" value="Segnalazione" style="swimlane;fontStyle=0;childLayout=stackLayout;horizontal=1;startSize=30;horizontalStack=0;resizeParent=1;resizeParentMax=0;resizeLast=0;collapsible=1;marginBottom=0;whiteSpace=wrap;html=1;rounded=1;" parent="1" vertex="1">
                    <mxGeometry x="494" y="62" width="140" height="60" as="geometry"/>
                </mxCell>
                <mxCell id="St-9uAu0BUOOX0do4pgm-19" value="&lt;div&gt;-descrizione&lt;/div&gt;" style="text;strokeColor=none;fillColor=none;align=left;verticalAlign=middle;spacingLeft=4;spacingRight=4;overflow=hidden;points=[[0,0.5],[1,0.5]];portConstraint=eastwest;rotatable=0;whiteSpace=wrap;html=1;rounded=1;" parent="St-9uAu0BUOOX0do4pgm-17" vertex="1">
                    <mxGeometry y="30" width="140" height="30" as="geometry"/>
                </mxCell>
                <mxCell id="St-9uAu0BUOOX0do4pgm-42" style="edgeStyle=orthogonalEdgeStyle;rounded=1;orthogonalLoop=1;jettySize=auto;html=1;exitX=1;exitY=0.5;exitDx=0;exitDy=0;shape=link;width=0.1960784313725501;entryX=0.288;entryY=1.115;entryDx=0;entryDy=0;entryPerimeter=0;" parent="1" target="g7s_SQnUVm_qu5aLHeUv-15" edge="1">
                    <mxGeometry relative="1" as="geometry">
                        <mxPoint x="723" y="440" as="targetPoint"/>
                        <mxPoint x="480" y="645" as="sourcePoint"/>
                        <Array as="points">
                            <mxPoint x="820" y="645"/>
                            <mxPoint x="820" y="433"/>
                        </Array>
                    </mxGeometry>
                </mxCell>
                <mxCell id="St-9uAu0BUOOX0do4pgm-46" value="verifica" style="text;html=1;align=center;verticalAlign=middle;resizable=0;points=[];autosize=1;strokeColor=none;fillColor=none;rounded=1;" parent="1" vertex="1">
                    <mxGeometry x="230" y="525" width="60" height="30" as="geometry"/>
                </mxCell>
                <mxCell id="St-9uAu0BUOOX0do4pgm-50" value="fornisce" style="text;html=1;align=center;verticalAlign=middle;resizable=0;points=[];autosize=1;strokeColor=none;fillColor=none;rounded=1;" parent="1" vertex="1">
                    <mxGeometry x="350" y="260" width="70" height="30" as="geometry"/>
                </mxCell>
                <mxCell id="St-9uAu0BUOOX0do4pgm-51" value="gestisce" style="text;html=1;align=center;verticalAlign=middle;resizable=0;points=[];autosize=1;strokeColor=none;fillColor=none;rounded=1;" parent="1" vertex="1">
                    <mxGeometry x="640" y="610" width="70" height="30" as="geometry"/>
                </mxCell>
                <mxCell id="St-9uAu0BUOOX0do4pgm-53" value="esegue" style="text;html=1;align=center;verticalAlign=middle;resizable=0;points=[];autosize=1;strokeColor=none;fillColor=none;rounded=1;" parent="1" vertex="1">
                    <mxGeometry x="360" y="62" width="60" height="30" as="geometry"/>
                </mxCell>
                <mxCell id="St-9uAu0BUOOX0do4pgm-54" value="subisce" style="text;html=1;align=center;verticalAlign=middle;resizable=0;points=[];autosize=1;strokeColor=none;fillColor=none;rounded=1;" parent="1" vertex="1">
                    <mxGeometry x="770" y="130" width="60" height="30" as="geometry"/>
                </mxCell>
                <mxCell id="St-9uAu0BUOOX0do4pgm-61" value="1,N" style="text;html=1;align=center;verticalAlign=middle;resizable=0;points=[];autosize=1;strokeColor=none;fillColor=none;rounded=1;" parent="1" vertex="1">
                    <mxGeometry x="400" y="570" width="40" height="30" as="geometry"/>
                </mxCell>
                <mxCell id="St-9uAu0BUOOX0do4pgm-62" value="0,1" style="text;html=1;align=center;verticalAlign=middle;resizable=0;points=[];autosize=1;strokeColor=none;fillColor=none;rounded=1;" parent="1" vertex="1">
                    <mxGeometry x="250" y="426" width="40" height="30" as="geometry"/>
                </mxCell>
                <mxCell id="St-9uAu0BUOOX0do4pgm-63" value="1,N" style="text;html=1;align=center;verticalAlign=middle;resizable=0;points=[];autosize=1;strokeColor=none;fillColor=none;rounded=1;" parent="1" vertex="1">
                    <mxGeometry x="480" y="620" width="40" height="30" as="geometry"/>
                </mxCell>
                <mxCell id="St-9uAu0BUOOX0do4pgm-69" value="1,1" style="text;html=1;align=center;verticalAlign=middle;resizable=0;points=[];autosize=1;strokeColor=none;fillColor=none;rounded=1;" parent="1" vertex="1">
                    <mxGeometry x="280" y="180" width="40" height="30" as="geometry"/>
                </mxCell>
                <mxCell id="St-9uAu0BUOOX0do4pgm-70" value="0,N" style="text;html=1;align=center;verticalAlign=middle;resizable=0;points=[];autosize=1;strokeColor=none;fillColor=none;rounded=1;" parent="1" vertex="1">
                    <mxGeometry x="454" y="92" width="40" height="30" as="geometry"/>
                </mxCell>
                <mxCell id="St-9uAu0BUOOX0do4pgm-71" value="0,N" style="text;html=1;align=center;verticalAlign=middle;resizable=0;points=[];autosize=1;strokeColor=none;fillColor=none;rounded=1;" parent="1" vertex="1">
                    <mxGeometry x="630" y="62" width="40" height="30" as="geometry"/>
                </mxCell>
                <mxCell id="St-9uAu0BUOOX0do4pgm-73" value="1,1" style="text;html=1;align=center;verticalAlign=middle;resizable=0;points=[];autosize=1;strokeColor=none;fillColor=none;rounded=1;" parent="1" vertex="1">
                    <mxGeometry x="827" y="190" width="40" height="30" as="geometry"/>
                </mxCell>
                <mxCell id="St-9uAu0BUOOX0do4pgm-79" value="0,N" style="text;html=1;align=center;verticalAlign=middle;resizable=0;points=[];autosize=1;strokeColor=none;fillColor=none;rounded=1;" parent="1" vertex="1">
                    <mxGeometry x="410" y="290" width="40" height="30" as="geometry"/>
                </mxCell>
                <mxCell id="St-9uAu0BUOOX0do4pgm-78" value="1,1" style="text;html=1;align=center;verticalAlign=middle;resizable=0;points=[];autosize=1;strokeColor=none;fillColor=none;rounded=1;" parent="1" vertex="1">
                    <mxGeometry x="320" y="290" width="40" height="30" as="geometry"/>
                </mxCell>
                <mxCell id="g7s_SQnUVm_qu5aLHeUv-4" style="edgeStyle=orthogonalEdgeStyle;rounded=1;orthogonalLoop=1;jettySize=auto;html=1;exitX=1.003;exitY=0.376;exitDx=0;exitDy=0;entryX=0.357;entryY=0;entryDx=0;entryDy=0;entryPerimeter=0;shape=link;width=-0.18181818181818166;exitPerimeter=0;" parent="1" source="St-9uAu0BUOOX0do4pgm-17" target="St-9uAu0BUOOX0do4pgm-13" edge="1">
                    <mxGeometry relative="1" as="geometry">
                        <mxPoint x="630" y="131" as="sourcePoint"/>
                        <Array as="points">
                            <mxPoint x="830" y="85"/>
                            <mxPoint x="830" y="220"/>
                        </Array>
                    </mxGeometry>
                </mxCell>
                <mxCell id="QI1vVgjxCqwTIBbzZpBC-4" value="Proposta" style="swimlane;fontStyle=0;childLayout=stackLayout;horizontal=1;startSize=30;horizontalStack=0;resizeParent=1;resizeParentMax=0;resizeLast=0;collapsible=1;marginBottom=0;whiteSpace=wrap;html=1;rounded=1;" parent="1" vertex="1">
                    <mxGeometry x="440" y="390" width="200" height="90" as="geometry"/>
                </mxCell>
                <mxCell id="QI1vVgjxCqwTIBbzZpBC-26" value="-stato" style="text;html=1;align=left;verticalAlign=middle;resizable=0;points=[];autosize=1;strokeColor=none;fillColor=none;rounded=1;" parent="QI1vVgjxCqwTIBbzZpBC-4" vertex="1">
                    <mxGeometry y="30" width="200" height="30" as="geometry"/>
                </mxCell>
                <mxCell id="LK_rWgTIg-7SpxV3aSgW-10" value="-intervallo date" style="text;html=1;align=left;verticalAlign=middle;resizable=0;points=[];autosize=1;strokeColor=none;fillColor=none;rounded=1;" parent="QI1vVgjxCqwTIBbzZpBC-4" vertex="1">
                    <mxGeometry y="60" width="200" height="30" as="geometry"/>
                </mxCell>
                <mxCell id="QI1vVgjxCqwTIBbzZpBC-27" value="1,1" style="text;html=1;align=center;verticalAlign=middle;resizable=0;points=[];autosize=1;strokeColor=none;fillColor=none;rounded=1;" parent="1" vertex="1">
                    <mxGeometry x="310" y="396" width="40" height="30" as="geometry"/>
                </mxCell>
                <mxCell id="XhUSFfAfBRlm4WyPhcBC-12" value="1,1" style="text;html=1;align=center;verticalAlign=middle;resizable=0;points=[];autosize=1;strokeColor=none;fillColor=none;rounded=1;" parent="1" vertex="1">
                    <mxGeometry x="310" y="340" width="40" height="30" as="geometry"/>
                </mxCell>
                <mxCell id="XhUSFfAfBRlm4WyPhcBC-13" value="0,N" style="text;html=1;align=center;verticalAlign=middle;resizable=0;points=[];autosize=1;strokeColor=none;fillColor=none;rounded=1;" parent="1" vertex="1">
                    <mxGeometry x="400" y="470" width="40" height="30" as="geometry"/>
                </mxCell>
                <mxCell id="XhUSFfAfBRlm4WyPhcBC-17" value="0,N" style="text;html=1;align=center;verticalAlign=middle;resizable=0;points=[];autosize=1;strokeColor=none;fillColor=none;rounded=1;" parent="1" vertex="1">
                    <mxGeometry x="410" y="390" width="40" height="30" as="geometry"/>
                </mxCell>
                <mxCell id="LK_rWgTIg-7SpxV3aSgW-2" value="Recensione " style="swimlane;fontStyle=0;childLayout=stackLayout;horizontal=1;startSize=30;horizontalStack=0;resizeParent=1;resizeParentMax=0;resizeLast=0;collapsible=1;marginBottom=0;whiteSpace=wrap;html=1;rounded=1;" parent="1" vertex="1">
                    <mxGeometry x="-110" y="260" width="140" height="86" as="geometry">
                        <mxRectangle x="1180" y="432" width="240" height="30" as="alternateBounds"/>
                    </mxGeometry>
                </mxCell>
                <mxCell id="LK_rWgTIg-7SpxV3aSgW-3" value="-descrizione" style="text;strokeColor=none;fillColor=none;align=left;verticalAlign=middle;spacingLeft=4;spacingRight=4;overflow=hidden;points=[[0,0.5],[1,0.5]];portConstraint=eastwest;rotatable=0;whiteSpace=wrap;html=1;rounded=1;" parent="LK_rWgTIg-7SpxV3aSgW-2" vertex="1">
                    <mxGeometry y="30" width="140" height="30" as="geometry"/>
                </mxCell>
                <mxCell id="LK_rWgTIg-7SpxV3aSgW-4" value="-valutazione" style="text;strokeColor=none;fillColor=none;align=left;verticalAlign=top;spacingLeft=4;spacingRight=4;overflow=hidden;rotatable=0;points=[[0,0.5],[1,0.5]];portConstraint=eastwest;whiteSpace=wrap;html=1;rounded=1;" parent="LK_rWgTIg-7SpxV3aSgW-2" vertex="1">
                    <mxGeometry y="60" width="140" height="26" as="geometry"/>
                </mxCell>
                <mxCell id="LK_rWgTIg-7SpxV3aSgW-8" value="" style="endArrow=none;html=1;rounded=1;entryX=0;entryY=0;entryDx=0;entryDy=0;entryPerimeter=0;exitX=0;exitY=1;exitDx=0;exitDy=0;exitPerimeter=0;" parent="1" source="St-9uAu0BUOOX0do4pgm-69" target="St-9uAu0BUOOX0do4pgm-19" edge="1">
                    <mxGeometry width="50" height="50" relative="1" as="geometry">
                        <mxPoint x="450" y="200" as="sourcePoint"/>
                        <mxPoint x="485" y="88" as="targetPoint"/>
                        <Array as="points">
                            <mxPoint x="280" y="92"/>
                            <mxPoint x="450" y="92"/>
                        </Array>
                    </mxGeometry>
                </mxCell>
                <mxCell id="LK_rWgTIg-7SpxV3aSgW-15" value="Locazione" style="swimlane;fontStyle=0;childLayout=stackLayout;horizontal=1;startSize=30;horizontalStack=0;resizeParent=1;resizeParentMax=0;resizeLast=0;collapsible=1;marginBottom=0;whiteSpace=wrap;html=1;rounded=1;" parent="1" vertex="1">
                    <mxGeometry x="450" y="162" width="140" height="208" as="geometry"/>
                </mxCell>
                <mxCell id="LK_rWgTIg-7SpxV3aSgW-17" value="-titolo" style="text;strokeColor=none;fillColor=none;align=left;verticalAlign=top;spacingLeft=4;spacingRight=4;overflow=hidden;rotatable=0;points=[[0,0.5],[1,0.5]];portConstraint=eastwest;whiteSpace=wrap;html=1;rounded=1;" parent="LK_rWgTIg-7SpxV3aSgW-15" vertex="1">
                    <mxGeometry y="30" width="140" height="26" as="geometry"/>
                </mxCell>
                <mxCell id="LK_rWgTIg-7SpxV3aSgW-18" value="-foto&amp;nbsp;" style="text;strokeColor=none;fillColor=none;align=left;verticalAlign=top;spacingLeft=4;spacingRight=4;overflow=hidden;rotatable=0;points=[[0,0.5],[1,0.5]];portConstraint=eastwest;whiteSpace=wrap;html=1;rounded=1;" parent="LK_rWgTIg-7SpxV3aSgW-15" vertex="1">
                    <mxGeometry y="56" width="140" height="26" as="geometry"/>
                </mxCell>
                <mxCell id="PYwElDgGKd6QntwyOTN1-1" value="-latitudine" style="text;strokeColor=none;fillColor=none;align=left;verticalAlign=middle;spacingLeft=4;spacingRight=4;overflow=hidden;points=[[0,0.5],[1,0.5]];portConstraint=eastwest;rotatable=0;whiteSpace=wrap;html=1;rounded=1;" parent="LK_rWgTIg-7SpxV3aSgW-15" vertex="1">
                    <mxGeometry y="82" width="140" height="30" as="geometry"/>
                </mxCell>
                <mxCell id="PYwElDgGKd6QntwyOTN1-2" value="longitudine" style="text;strokeColor=none;fillColor=none;align=left;verticalAlign=middle;spacingLeft=4;spacingRight=4;overflow=hidden;points=[[0,0.5],[1,0.5]];portConstraint=eastwest;rotatable=0;whiteSpace=wrap;html=1;rounded=1;" parent="LK_rWgTIg-7SpxV3aSgW-15" vertex="1">
                    <mxGeometry y="112" width="140" height="30" as="geometry"/>
                </mxCell>
                <mxCell id="LK_rWgTIg-7SpxV3aSgW-19" value="-descrizione" style="text;strokeColor=none;fillColor=none;align=left;verticalAlign=top;spacingLeft=4;spacingRight=4;overflow=hidden;rotatable=0;points=[[0,0.5],[1,0.5]];portConstraint=eastwest;whiteSpace=wrap;html=1;rounded=1;" parent="LK_rWgTIg-7SpxV3aSgW-15" vertex="1">
                    <mxGeometry y="142" width="140" height="36" as="geometry"/>
                </mxCell>
                <mxCell id="PYwElDgGKd6QntwyOTN1-3" value="-indirizzo" style="text;strokeColor=none;fillColor=none;align=left;verticalAlign=middle;spacingLeft=4;spacingRight=4;overflow=hidden;points=[[0,0.5],[1,0.5]];portConstraint=eastwest;rotatable=0;whiteSpace=wrap;html=1;rounded=1;" parent="LK_rWgTIg-7SpxV3aSgW-15" vertex="1">
                    <mxGeometry y="178" width="140" height="30" as="geometry"/>
                </mxCell>
                <mxCell id="LK_rWgTIg-7SpxV3aSgW-25" value="" style="endArrow=none;html=1;rounded=1;entryX=0.935;entryY=0.06;entryDx=0;entryDy=0;entryPerimeter=0;" parent="1" target="St-9uAu0BUOOX0do4pgm-79" edge="1">
                    <mxGeometry width="50" height="50" relative="1" as="geometry">
                        <mxPoint x="320" y="290" as="sourcePoint"/>
                        <mxPoint x="403.5" y="286.6399999999999" as="targetPoint"/>
                        <Array as="points"/>
                    </mxGeometry>
                </mxCell>
                <mxCell id="LK_rWgTIg-7SpxV3aSgW-26" value="" style="endArrow=none;html=1;rounded=1;entryX=-0.006;entryY=0.667;entryDx=0;entryDy=0;entryPerimeter=0;" parent="1" target="g7s_SQnUVm_qu5aLHeUv-13" edge="1">
                    <mxGeometry width="50" height="50" relative="1" as="geometry">
                        <mxPoint x="590" y="267" as="sourcePoint"/>
                        <mxPoint x="589" y="218" as="targetPoint"/>
                    </mxGeometry>
                </mxCell>
                <mxCell id="LK_rWgTIg-7SpxV3aSgW-27" value="con" style="text;html=1;align=center;verticalAlign=middle;resizable=0;points=[];autosize=1;strokeColor=none;fillColor=none;rounded=1;" parent="1" vertex="1">
                    <mxGeometry x="670" y="241" width="40" height="30" as="geometry"/>
                </mxCell>
                <mxCell id="LK_rWgTIg-7SpxV3aSgW-28" value="" style="endArrow=none;html=1;rounded=1;entryX=0.776;entryY=1.012;entryDx=0;entryDy=0;entryPerimeter=0;" parent="1" target="g7s_SQnUVm_qu5aLHeUv-12" edge="1">
                    <mxGeometry width="50" height="50" relative="1" as="geometry">
                        <mxPoint x="339" y="640" as="sourcePoint"/>
                        <mxPoint x="290" y="440" as="targetPoint"/>
                        <Array as="points">
                            <mxPoint x="290" y="640"/>
                            <mxPoint x="290" y="560"/>
                        </Array>
                    </mxGeometry>
                </mxCell>
                <mxCell id="LK_rWgTIg-7SpxV3aSgW-33" value="1,1" style="text;html=1;align=center;verticalAlign=middle;resizable=0;points=[];autosize=1;strokeColor=none;fillColor=none;rounded=1;" parent="1" vertex="1">
                    <mxGeometry x="594" y="241" width="40" height="30" as="geometry"/>
                </mxCell>
                <mxCell id="LK_rWgTIg-7SpxV3aSgW-34" value="1,N" style="text;html=1;align=center;verticalAlign=middle;resizable=0;points=[];autosize=1;strokeColor=none;fillColor=none;rounded=1;" parent="1" vertex="1">
                    <mxGeometry x="730" y="241" width="40" height="30" as="geometry"/>
                </mxCell>
                <mxCell id="FGoZ48OgDiTH2Jhmd4TZ-1" value="" style="endArrow=none;html=1;rounded=1;entryX=0;entryY=0.442;entryDx=0;entryDy=0;entryPerimeter=0;exitX=1;exitY=0.25;exitDx=0;exitDy=0;" parent="1" source="LK_rWgTIg-7SpxV3aSgW-2" target="N86cOKwH3iOJ5V4Ton-A-2" edge="1">
                    <mxGeometry width="50" height="50" relative="1" as="geometry">
                        <mxPoint x="40" y="276" as="sourcePoint"/>
                        <mxPoint x="180" y="250" as="targetPoint"/>
                    </mxGeometry>
                </mxCell>
                <mxCell id="FGoZ48OgDiTH2Jhmd4TZ-2" value="" style="endArrow=none;html=1;rounded=1;entryX=0;entryY=0.5;entryDx=0;entryDy=0;exitX=1.007;exitY=0.8;exitDx=0;exitDy=0;exitPerimeter=0;" parent="1" source="FGoZ48OgDiTH2Jhmd4TZ-6" target="N86cOKwH3iOJ5V4Ton-A-4" edge="1">
                    <mxGeometry width="50" height="50" relative="1" as="geometry">
                        <mxPoint x="70" y="310" as="sourcePoint"/>
                        <mxPoint x="380" y="160" as="targetPoint"/>
                    </mxGeometry>
                </mxCell>
                <mxCell id="FGoZ48OgDiTH2Jhmd4TZ-3" value="0,N" style="text;html=1;align=center;verticalAlign=middle;whiteSpace=wrap;rounded=1;" parent="1" vertex="1">
                    <mxGeometry x="20" y="251" width="60" height="30" as="geometry"/>
                </mxCell>
                <mxCell id="FGoZ48OgDiTH2Jhmd4TZ-4" value="0,N" style="text;html=1;align=center;verticalAlign=middle;resizable=0;points=[];autosize=1;strokeColor=none;fillColor=none;rounded=1;" parent="1" vertex="1">
                    <mxGeometry x="30" y="308" width="40" height="30" as="geometry"/>
                </mxCell>
                <mxCell id="FGoZ48OgDiTH2Jhmd4TZ-5" value="1,1" style="text;html=1;align=center;verticalAlign=middle;resizable=0;points=[];autosize=1;strokeColor=none;fillColor=none;rounded=1;" parent="1" vertex="1">
                    <mxGeometry x="150" y="251" width="40" height="30" as="geometry"/>
                </mxCell>
                <mxCell id="FGoZ48OgDiTH2Jhmd4TZ-8" value="" style="endArrow=none;html=1;rounded=1;exitX=1;exitY=0.5;exitDx=0;exitDy=0;entryX=-0.016;entryY=0.893;entryDx=0;entryDy=0;entryPerimeter=0;" parent="1" source="g7s_SQnUVm_qu5aLHeUv-12" target="LK_rWgTIg-7SpxV3aSgW-10" edge="1">
                    <mxGeometry width="50" height="50" relative="1" as="geometry">
                        <mxPoint x="610" y="540" as="sourcePoint"/>
                        <mxPoint x="660" y="490" as="targetPoint"/>
                        <Array as="points">
                            <mxPoint x="320" y="480"/>
                        </Array>
                    </mxGeometry>
                </mxCell>
                <mxCell id="FGoZ48OgDiTH2Jhmd4TZ-9" value="" style="endArrow=none;html=1;rounded=1;entryX=0;entryY=0;entryDx=0;entryDy=0;entryPerimeter=0;" parent="1" target="QI1vVgjxCqwTIBbzZpBC-26" edge="1">
                    <mxGeometry width="50" height="50" relative="1" as="geometry">
                        <mxPoint x="320" y="372" as="sourcePoint"/>
                        <mxPoint x="660" y="490" as="targetPoint"/>
                        <Array as="points">
                            <mxPoint x="360" y="420"/>
                        </Array>
                    </mxGeometry>
                </mxCell>
                <mxCell id="FGoZ48OgDiTH2Jhmd4TZ-10" value="" style="endArrow=none;html=1;rounded=1;entryX=-0.006;entryY=-0.123;entryDx=0;entryDy=0;entryPerimeter=0;" parent="1" target="g7s_SQnUVm_qu5aLHeUv-15" edge="1">
                    <mxGeometry width="50" height="50" relative="1" as="geometry">
                        <mxPoint x="640" y="400" as="sourcePoint"/>
                        <mxPoint x="660" y="490" as="targetPoint"/>
                    </mxGeometry>
                </mxCell>
                <mxCell id="FGoZ48OgDiTH2Jhmd4TZ-12" value="fa" style="text;html=1;align=center;verticalAlign=middle;resizable=0;points=[];autosize=1;strokeColor=none;fillColor=none;rotation=0;rounded=1;" parent="1" vertex="1">
                    <mxGeometry x="355" y="390" width="30" height="30" as="geometry"/>
                </mxCell>
                <mxCell id="FGoZ48OgDiTH2Jhmd4TZ-13" value="valuta" style="text;html=1;align=center;verticalAlign=middle;resizable=0;points=[];autosize=1;strokeColor=none;fillColor=none;rotation=0;rounded=1;" parent="1" vertex="1">
                    <mxGeometry x="340" y="450" width="60" height="30" as="geometry"/>
                </mxCell>
                <mxCell id="FGoZ48OgDiTH2Jhmd4TZ-15" value="" style="endArrow=none;html=1;rounded=1;entryX=0.69;entryY=1.047;entryDx=0;entryDy=0;exitX=1.007;exitY=0.8;exitDx=0;exitDy=0;exitPerimeter=0;entryPerimeter=0;" parent="1" source="LK_rWgTIg-7SpxV3aSgW-4" target="FGoZ48OgDiTH2Jhmd4TZ-6" edge="1">
                    <mxGeometry width="50" height="50" relative="1" as="geometry">
                        <mxPoint x="41" y="333" as="sourcePoint"/>
                        <mxPoint x="180" y="335" as="targetPoint"/>
                    </mxGeometry>
                </mxCell>
                <mxCell id="FGoZ48OgDiTH2Jhmd4TZ-6" value="1,1" style="text;html=1;align=center;verticalAlign=middle;resizable=0;points=[];autosize=1;strokeColor=none;fillColor=none;rounded=1;" parent="1" vertex="1">
                    <mxGeometry x="150" y="310" width="40" height="30" as="geometry"/>
                </mxCell>
                <mxCell id="FGoZ48OgDiTH2Jhmd4TZ-16" value="riceve" style="text;html=1;align=center;verticalAlign=middle;resizable=0;points=[];autosize=1;strokeColor=none;fillColor=none;rounded=1;" parent="1" vertex="1">
                    <mxGeometry x="80" y="251" width="60" height="30" as="geometry"/>
                </mxCell>
                <mxCell id="FGoZ48OgDiTH2Jhmd4TZ-17" value="esegue" style="text;html=1;align=center;verticalAlign=middle;resizable=0;points=[];autosize=1;strokeColor=none;fillColor=none;rounded=1;" parent="1" vertex="1">
                    <mxGeometry x="80" y="308" width="60" height="30" as="geometry"/>
                </mxCell>
                <mxCell id="FGoZ48OgDiTH2Jhmd4TZ-20" value="0,N" style="text;html=1;align=center;verticalAlign=middle;resizable=0;points=[];autosize=1;strokeColor=none;fillColor=none;rounded=1;" parent="1" vertex="1">
                    <mxGeometry x="630" y="398" width="40" height="30" as="geometry"/>
                </mxCell>
                <mxCell id="FGoZ48OgDiTH2Jhmd4TZ-21" value="1,1" style="text;html=1;align=center;verticalAlign=middle;resizable=0;points=[];autosize=1;strokeColor=none;fillColor=none;rounded=1;" parent="1" vertex="1">
                    <mxGeometry x="730" y="398" width="40" height="30" as="geometry"/>
                </mxCell>
                <mxCell id="FGoZ48OgDiTH2Jhmd4TZ-22" value="rispetto" style="text;html=1;align=center;verticalAlign=middle;resizable=0;points=[];autosize=1;strokeColor=none;fillColor=none;rounded=1;" parent="1" vertex="1">
                    <mxGeometry x="650" y="368" width="60" height="30" as="geometry"/>
                </mxCell>
                <mxCell id="FGoZ48OgDiTH2Jhmd4TZ-24" value="" style="endArrow=none;html=1;rounded=1;exitX=0.5;exitY=1;exitDx=0;exitDy=0;entryX=0.528;entryY=1.113;entryDx=0;entryDy=0;entryPerimeter=0;" parent="1" source="LK_rWgTIg-7SpxV3aSgW-2" target="LK_rWgTIg-7SpxV3aSgW-10" edge="1">
                    <mxGeometry width="50" height="50" relative="1" as="geometry">
                        <mxPoint x="370" y="610" as="sourcePoint"/>
                        <mxPoint x="420" y="560" as="targetPoint"/>
                        <Array as="points">
                            <mxPoint x="-40" y="600"/>
                            <mxPoint x="-40" y="760"/>
                            <mxPoint x="550" y="760"/>
                        </Array>
                    </mxGeometry>
                </mxCell>
                <mxCell id="FGoZ48OgDiTH2Jhmd4TZ-25" value="0,N" style="text;html=1;align=center;verticalAlign=middle;whiteSpace=wrap;rounded=1;" parent="1" vertex="1">
                    <mxGeometry x="-90" y="346" width="60" height="30" as="geometry"/>
                </mxCell>
                <mxCell id="FGoZ48OgDiTH2Jhmd4TZ-26" value="relativa a" style="text;html=1;align=center;verticalAlign=middle;resizable=0;points=[];autosize=1;strokeColor=none;fillColor=none;rounded=1;" parent="1" vertex="1">
                    <mxGeometry x="20" y="730" width="70" height="30" as="geometry"/>
                </mxCell>
                <mxCell id="FGoZ48OgDiTH2Jhmd4TZ-27" value="0,1" style="text;html=1;align=center;verticalAlign=middle;resizable=0;points=[];autosize=1;strokeColor=none;fillColor=none;rounded=1;" parent="1" vertex="1">
                    <mxGeometry x="544" y="480" width="40" height="30" as="geometry"/>
                </mxCell>
                <mxCell id="NGPd4OX_sAM26wYgHrGU-1" value="photo" style="swimlane;fontStyle=0;childLayout=stackLayout;horizontal=1;startSize=30;horizontalStack=0;resizeParent=1;resizeParentMax=0;resizeLast=0;collapsible=1;marginBottom=0;whiteSpace=wrap;html=1;rounded=1;" parent="1" vertex="1">
                    <mxGeometry x="454" y="800" width="140" height="120" as="geometry"/>
                </mxCell>
                <mxCell id="NGPd4OX_sAM26wYgHrGU-2" value="id" style="text;strokeColor=none;fillColor=none;align=left;verticalAlign=middle;spacingLeft=4;spacingRight=4;overflow=hidden;points=[[0,0.5],[1,0.5]];portConstraint=eastwest;rotatable=0;whiteSpace=wrap;html=1;rounded=1;" parent="NGPd4OX_sAM26wYgHrGU-1" vertex="1">
                    <mxGeometry y="30" width="140" height="30" as="geometry"/>
                </mxCell>
                <mxCell id="NGPd4OX_sAM26wYgHrGU-3" value="data" style="text;strokeColor=none;fillColor=none;align=left;verticalAlign=middle;spacingLeft=4;spacingRight=4;overflow=hidden;points=[[0,0.5],[1,0.5]];portConstraint=eastwest;rotatable=0;whiteSpace=wrap;html=1;rounded=1;" parent="NGPd4OX_sAM26wYgHrGU-1" vertex="1">
                    <mxGeometry y="60" width="140" height="30" as="geometry"/>
                </mxCell>
                <mxCell id="NGPd4OX_sAM26wYgHrGU-4" value="type" style="text;strokeColor=none;fillColor=none;align=left;verticalAlign=middle;spacingLeft=4;spacingRight=4;overflow=hidden;points=[[0,0.5],[1,0.5]];portConstraint=eastwest;rotatable=0;whiteSpace=wrap;html=1;rounded=1;" parent="NGPd4OX_sAM26wYgHrGU-1" vertex="1">
                    <mxGeometry y="90" width="140" height="30" as="geometry"/>
                </mxCell>
                <mxCell id="NGPd4OX_sAM26wYgHrGU-5" value="" style="endArrow=none;html=1;rounded=1;entryX=0.162;entryY=1.104;entryDx=0;entryDy=0;entryPerimeter=0;" parent="1" target="g7s_SQnUVm_qu5aLHeUv-12" edge="1">
                    <mxGeometry width="50" height="50" relative="1" as="geometry">
                        <mxPoint x="453" y="875" as="sourcePoint"/>
                        <mxPoint x="780" y="560" as="targetPoint"/>
                        <Array as="points">
                            <mxPoint x="200" y="875"/>
                        </Array>
                    </mxGeometry>
                </mxCell>
                <mxCell id="NGPd4OX_sAM26wYgHrGU-6" value="" style="endArrow=none;html=1;rounded=1;exitX=1;exitY=0.5;exitDx=0;exitDy=0;entryX=1;entryY=0.5;entryDx=0;entryDy=0;" parent="1" source="NGPd4OX_sAM26wYgHrGU-3" target="LK_rWgTIg-7SpxV3aSgW-19" edge="1">
                    <mxGeometry width="50" height="50" relative="1" as="geometry">
                        <mxPoint x="730" y="640" as="sourcePoint"/>
                        <mxPoint x="690" y="320" as="targetPoint"/>
                        <Array as="points">
                            <mxPoint x="720" y="680"/>
                            <mxPoint x="720" y="322"/>
                        </Array>
                    </mxGeometry>
                </mxCell>
                <mxCell id="NGPd4OX_sAM26wYgHrGU-7" value="Text" style="text;html=1;align=center;verticalAlign=middle;whiteSpace=wrap;rounded=1;" parent="1" vertex="1">
                    <mxGeometry x="730" y="540" width="60" height="30" as="geometry"/>
                </mxCell>
                <mxCell id="NGPd4OX_sAM26wYgHrGU-8" value="Text" style="text;html=1;align=center;verticalAlign=middle;whiteSpace=wrap;rounded=1;" parent="1" vertex="1">
                    <mxGeometry x="730" y="540" width="60" height="30" as="geometry"/>
                </mxCell>
                <mxCell id="NGPd4OX_sAM26wYgHrGU-9" value="1,1" style="text;html=1;align=center;verticalAlign=middle;resizable=0;points=[];autosize=1;strokeColor=none;fillColor=none;rounded=1;" parent="1" vertex="1">
                    <mxGeometry x="160" y="430" width="40" height="30" as="geometry"/>
                </mxCell>
                <mxCell id="NGPd4OX_sAM26wYgHrGU-10" value="1,1" style="text;html=1;align=center;verticalAlign=middle;resizable=0;points=[];autosize=1;strokeColor=none;fillColor=none;rounded=1;" parent="1" vertex="1">
                    <mxGeometry x="410" y="845" width="40" height="30" as="geometry"/>
                </mxCell>
                <mxCell id="NGPd4OX_sAM26wYgHrGU-11" value="1,1" style="text;html=1;align=center;verticalAlign=middle;resizable=0;points=[];autosize=1;strokeColor=none;fillColor=none;rounded=1;" parent="1" vertex="1">
                    <mxGeometry x="590" y="290" width="40" height="30" as="geometry"/>
                </mxCell>
                <mxCell id="NGPd4OX_sAM26wYgHrGU-12" value="1,N" style="text;html=1;align=center;verticalAlign=middle;resizable=0;points=[];autosize=1;strokeColor=none;fillColor=none;rounded=1;" parent="1" vertex="1">
                    <mxGeometry x="610" y="858" width="40" height="30" as="geometry"/>
                </mxCell>
            </root>
        </mxGraphModel>
    </diagram>
    <diagram id="SqDIAziopFTaLxm6KmJq" name="Pagina-2">
        <mxGraphModel dx="768" dy="611" grid="1" gridSize="10" guides="1" tooltips="1" connect="1" arrows="1" fold="1" page="1" pageScale="1" pageWidth="827" pageHeight="1169" math="0" shadow="0">
            <root>
                <mxCell id="0"/>
                <mxCell id="1" parent="0"/>
            </root>
        </mxGraphModel>
    </diagram>
    <diagram id="1pC3FUXFuDE8wqYvLNm-" name="Pagina-3">
        <mxGraphModel dx="768" dy="611" grid="1" gridSize="10" guides="1" tooltips="1" connect="1" arrows="1" fold="1" page="1" pageScale="1" pageWidth="827" pageHeight="1169" math="0" shadow="0">
            <root>
                <mxCell id="0"/>
                <mxCell id="1" parent="0"/>
            </root>
        </mxGraphModel>
    </diagram>
</mxfile>